<svg xmlns="http://www.w3.org/2000/svg" viewBox="0 0 57 106.52"><defs><style>.cls-1{fill:none;stroke:#000;stroke-linecap:round;stroke-linejoin:round;}</style></defs><title>cactus</title><g id="Layer_2" data-name="Layer 2"><g id="Layer_1-2" data-name="Layer 1"><path class="cls-1" d="M40,58l5.5-13h0l7.63-18.12a9.6,9.6,0,0,0-17.5-7.52"/><path class="cls-1" d="M33.62,58,39.5,24.1a9.64,9.64,0,0,1,11-6.81,9.6,9.6,0,0,1,2.57,9.55L45.45,45h0L40,58"/><path class="cls-1" d="M17.84,58,16.1,47.7,14.4,37.61h0l-4-24.07A12.19,12.19,0,0,1,18.41,1.75,13.59,13.59,0,0,1,22.68.86,13.22,13.22,0,0,1,32,4a11.67,11.67,0,0,1,4.11,8.33l-.52,7L32.7,58"/><path class="cls-1" d="M17.84,58,16.1,47.7,14.4,37.61h0l-4-24.07A12.19,12.19,0,0,1,18.41,1.75a12.07,12.07,0,0,1,7.94,10.62l-1.69,22.7h0L23,58"/><line class="cls-1" x1="23.59" y1="54.02" x2="26.72" y2="54.02"/><line class="cls-1" x1="24.21" y1="46.02" x2="26.87" y2="45.08"/><line class="cls-1" x1="23.74" y1="38.64" x2="22.18" y2="38.02"/><line class="cls-1" x1="25.46" y1="27.61" x2="28.28" y2="25.4"/><line class="cls-1" x1="25.15" y1="22.1" x2="22.65" y2="20.85"/><line class="cls-1" x1="26.72" y1="16.31" x2="28.28" y2="15.37"/><line class="cls-1" x1="25.46" y1="9.42" x2="23.9" y2="9.74"/><line class="cls-1" x1="37.67" y1="36.03" x2="40.33" y2="35.72"/><line class="cls-1" x1="38.61" y1="28.68" x2="37.05" y2="28.05"/><line class="cls-1" x1="39.71" y1="26.17" x2="40.96" y2="26.01"/><line class="cls-1" x1="42.26" y1="19.54" x2="43.84" y2="20.75"/><line class="cls-1" x1="36.89" y1="41.82" x2="38.61" y2="42.14"/><line class="cls-1" x1="35.95" y1="46.36" x2="38.3" y2="46.36"/><line class="cls-1" x1="48.63" y1="38.54" x2="50.88" y2="38.54"/><line class="cls-1" x1="53.8" y1="25.54" x2="54.89" y2="25.54"/><line class="cls-1" x1="43.93" y1="14.59" x2="43.78" y2="13.02"/><line class="cls-1" x1="40.02" y1="15.37" x2="40.02" y2="14.27"/><line class="cls-1" x1="35.95" y1="10.67" x2="37.52" y2="10.67"/><line class="cls-1" x1="31.88" y1="4.1" x2="33.92" y2="3"/><line class="cls-1" x1="9.97" y1="16.47" x2="8.25" y2="16.62"/><line class="cls-1" x1="11.69" y1="23.82" x2="9.34" y2="22.41"/><line class="cls-1" x1="12.78" y1="28.36" x2="11.38" y2="28.36"/><line class="cls-1" x1="13.57" y1="35.41" x2="11.22" y2="35.41"/><line class="cls-1" x1="14.19" y1="37.75" x2="15.92" y2="36.5"/><line class="cls-1" x1="12" y1="21.01" x2="13.57" y2="20.69"/><line class="cls-1" x1="50.51" y1="32.59" x2="49.1" y2="31.34"/><line class="cls-1" x1="38.14" y1="16.94" x2="39.24" y2="17.72"/><line class="cls-1" x1="52.39" y1="20.54" x2="50.82" y2="20.69"/><line class="cls-1" x1="47.53" y1="15.06" x2="48.63" y2="14.12"/><line class="cls-1" x1="24.05" y1="5.04" x2="24.52" y2="4.1"/><line class="cls-1" x1="12.63" y1="5.2" x2="11.85" y2="3.32"/><line class="cls-1" x1="16.07" y1="3.32" x2="16.38" y2="5.2"/><line class="cls-1" x1="27.5" y1="1.28" x2="27.97" y2="0.5"/><line class="cls-1" x1="16.23" y1="43.39" x2="17.95" y2="42.61"/><line class="cls-1" x1="16.23" y1="49.34" x2="14.66" y2="49.02"/><path class="cls-1" d="M56.5,49.15"/><line class="cls-1" x1="42.92" y1="48.83" x2="42.43" y2="46.86"/><line class="cls-1" x1="44.88" y1="45.06" x2="47.83" y2="44.57"/><line class="cls-1" x1="46.68" y1="41.3" x2="46.03" y2="39.01"/><line class="cls-1" x1="46.68" y1="17.74" x2="46.68" y2="19.21"/><line class="cls-1" x1="24.57" y1="35.11" x2="27.41" y2="34.02"/><polygon class="cls-1" points="51.7 106.02 3.7 106.02 0.5 101.02 4.5 72.67 12.5 62.02 12.5 58.02 45 58.02 45 62.02 52.5 72.67 56.5 101.02 51.7 106.02"/><line class="cls-1" x1="24.5" y1="62.02" x2="12.5" y2="62.02"/><path class="cls-1" d="M24.5,62"/><line class="cls-1" x1="44.5" y1="62.02" x2="28.5" y2="62.02"/><line class="cls-1" x1="44.5" y1="101.02" x2="56.5" y2="101.02"/><path class="cls-1" d="M44.5,101"/><path class="cls-1" d="M32.5,101"/><line class="cls-1" x1="0.5" y1="101.02" x2="32.5" y2="101.02"/><line class="cls-1" x1="12.5" y1="72.67" x2="4.5" y2="72.67"/><path class="cls-1" d="M12.5,72.67"/><path class="cls-1" d="M20.5,72.67"/><line class="cls-1" x1="36.5" y1="72.67" x2="20.5" y2="72.67"/><path class="cls-1" d="M36.5,72.67"/><path class="cls-1" d="M40.5,72.67"/><line class="cls-1" x1="52.5" y1="72.67" x2="40.5" y2="72.67"/></g></g></svg>