<svg xmlns="http://www.w3.org/2000/svg" viewBox="0 0 202.8 203.17"><title>cert_passion</title><g id="Layer_2" data-name="Layer 2"><g id="Layer_1-2" data-name="Layer 1"><path d="M42.53,39.1c-3.42,3.26-6.86,4-11.05-.36s-3.24-7.8.18-11.06c2.61-2.49,4.73-2.93,7.09-2.4l-.94,3.27a4.55,4.55,0,0,0-4.36,1c-2,1.9-2.33,3.72.56,6.76s4.74,2.8,6.72.91a4.77,4.77,0,0,0,1.17-4.38l3.35-.94C45.8,34.75,44.78,36.95,42.53,39.1Z"/><path d="M49.8,17l2.06,3.58,6.79-3.91,1.23,2.14-6.79,3.91L55,26.11l8.1-4.66,1.23,2.13-11,6.35L45.64,16.59l11-6.35,1.23,2.13Z"/><path d="M81,17.92,76.7,12.48l-3.59,1,1.76,6.16-3.26.93L67.36,5.79l7.38-2.11C77,3,80.12,2.4,81.24,6.29c.77,2.69-.18,4.15-1.61,5L84.31,17Zm-8.54-6.78,4-1.13c1.6-.46,2.24-1.16,1.78-2.79-.39-1.35-1.3-1.58-2.94-1.11L71.3,7.23Z"/><path d="M104.43,2.46l-5.35.21.5,12.92-3.36.13L95.72,2.8,90.39,3,90.3.54l14-.54Z"/><path d="M122.83,5l-2.1,10.26,4.24.87-.49,2.42-11.78-2.41.49-2.41,4.22.86,2.1-10.26-4.22-.86L115.79,1l11.78,2.41-.49,2.42Z"/><path d="M142.32,11.52l-1.83,3.84,7.24,3.45L146.67,21l-7.24-3.45-2.68,5.62-3.05-1.46,6.63-13.91,11.31,5.39-1.06,2.23Z"/><path d="M165.17,26l-6.63,8.11,3.35,2.74-1.56,1.91L151,31.18l1.56-1.91L155.93,32l6.63-8.11-3.34-2.73,1.56-1.91,9.3,7.61-1.56,1.91Z"/><path d="M178.79,40l-3.3,2.49,4.72,6.26-2,1.48L173.52,44l-3.09,2.33,5.63,7.47-2,1.48-7.67-10.17,12.29-9.27L186.39,46l-2,1.48Z"/><path d="M190.62,72.16c-7.08,3-8.9-1.22-10.08-4l-2.46-5.75,14.15-6.06,2.46,5.75C195.88,64.87,197.7,69.13,190.62,72.16ZM189.26,69c3.56-1.52,4.38-3.06,3.08-6.11l-1-2.42-9.62,4.12,1,2.42C184,70,185.7,70.5,189.26,69Z"/><path d="M192.34,106.53l-5.16-.4.26-3.34L202.8,104l-.49,6.42c-.19,2.51-.71,6.37-5.34,6-5-.38-5.05-4.29-4.86-6.8Zm2.46.19-.25,3.28c-.11,1.46.14,2.79,2.53,3,2.06.16,2.64-1.11,2.76-2.57l.25-3.28Z"/><path d="M184.76,133l2.27-6.85-2.69-1.75,1.09-3.29,13.29,8.82-2.32,7-15.93-.85,1.09-3.29Zm2.54.16,7.6.47.64-1.95-6.38-4.15Z"/><path d="M173.87,156c-3-1.9-2.18-5.3.13-9,2-3.25,4.28-4.83,6.7-4.86l-.3,3.23a5.83,5.83,0,0,0-4.21,3c-1.25,2-1.79,3.78-.56,4.56,1,.6,2.71-.66,4.29-2.54s4.64-4.8,7.55-3c2.65,1.66,1.69,5.09-.27,8.2-1.7,2.71-4,4.48-6.25,4.36l.16-3a5.26,5.26,0,0,0,3.89-2.7c1.1-1.75,1.48-3.25.57-3.83s-2,.46-3.68,2.22C179.55,155.12,176.62,157.76,173.87,156Z"/><path d="M158.77,171.78c-2.48-2.56-.86-5.67,2.25-8.68,2.76-2.67,5.31-3.68,7.67-3.13L167.63,163a5.84,5.84,0,0,0-4.8,1.92c-1.68,1.63-2.64,3.25-1.62,4.3.78.81,2.79,0,4.77-1.44s5.65-3.56,8-1.09c2.18,2.25.43,5.34-2.21,7.9-2.3,2.23-4.92,3.41-7.1,2.75l.87-2.92a5.27,5.27,0,0,0,4.42-1.7c1.48-1.44,2.21-2.81,1.46-3.58s-2,0-4.1,1.28C164.51,172.25,161,174.12,158.77,171.78Z"/><path d="M149.68,187.9l-5.28-9L140.66,181l-1.24-2.13,10.38-6.06L151,175l-3.72,2.17,5.28,9,3.72-2.17,1.24,2.13-10.37,6.06-1.24-2.13Z"/><path d="M135.11,189.27c1.79,6.05-.92,8.48-5.06,9.7s-7.7.64-9.49-5.41.92-8.5,5-9.71S133.32,183.2,135.11,189.27Zm-11.2,3.3c1.14,3.86,3.29,4.53,5.4,3.91s3.58-2.36,2.44-6.22-3.3-4.55-5.43-3.92S122.77,188.69,123.92,192.57Z"/><path d="M99.5,203.17l-.7-15.38,3.14-.14,6.9,10-.47-10.3,3.36-.15.7,15.38-3.1.14-7-10.15.48,10.45Z"/><path d="M64.74,185.17l2.19-4.69,3,1.42-6.52,14-5.84-2.73c-2.28-1.07-5.71-2.91-3.75-7.12,2.11-4.51,5.8-3.22,8.08-2.15Zm-1,2.23-3-1.39c-1.33-.62-2.66-.85-3.68,1.32-.87,1.87.11,2.87,1.43,3.49l3,1.39Z"/><path d="M44.6,166.36l-2,6.62,2.91,2.35,4-5,2.64,2.13-9.67,12-6-4.82c-1.83-1.47-4.14-3.66-1.6-6.82,1.75-2.17,3.5-2.24,5-1.58l1.91-7.07ZM44,177.25l-3.2-2.58c-1.29-1-2.24-1.17-3.3.15-.88,1.1-.55,2,.78,3l3.17,2.55Z"/><path d="M31.47,164.49c-5,3.84-8.25,2.18-10.88-1.25s-3.36-7,1.65-10.8,8.27-2.19,10.88,1.21S36.5,160.64,31.47,164.49Zm-7.1-9.27c-3.2,2.45-3,4.7-1.72,6.44s3.49,2.5,6.69,0,3.07-4.72,1.72-6.48S27.59,152.76,24.37,155.22Z"/><path d="M16.87,132.67c2.38-1,4.85,1.22,6.26,4.43,1.13,2.58,1.3,4.45.86,5.61l-2.83-.86a5.56,5.56,0,0,0-.36-3.59c-.7-1.6-1.86-2.78-3.07-2.25l-7.9,3.45,3,6.75-2.26,1-4.31-9.86Z"/><path d="M4.19,120.88l4.08-.69L7,112.46,9.38,112l1.31,7.73,3.82-.65-1.57-9.22,2.43-.41L17.51,122,2.33,124.62.19,112.07l2.43-.41Z"/><path d="M15.77,94.88c-.33,4.71-2.36,7.6-8.42,7.17S-.29,98.48,0,93.76c.25-3.6,1.52-5.35,3.63-6.55l1.51,3.05a4.56,4.56,0,0,0-2.55,3.68c-.19,2.74.78,4.33,5,4.62S13,97.44,13.18,94.7a4.77,4.77,0,0,0-2.08-4l1.84-2.95C15.25,89.46,16,91.77,15.77,94.88Z"/><path d="M9.24,64.57l-1.64,5.1,12.31,4-1,3.2-12.31-4L4.92,77.95l-2.35-.76L6.89,63.81Z"/></g></g></svg>