<svg xmlns="http://www.w3.org/2000/svg" viewBox="0 0 194.58 194.43"><title>cert</title><g id="Layer_2" data-name="Layer 2"><g id="Layer_1-2" data-name="Layer 1"><path d="M36.88,36.36c-2.33,2.33-5,2.55-7.83-.3s-2.57-5.53-.24-7.86a5,5,0,0,1,4.65-1.76l-.33,1.37A3.78,3.78,0,0,0,29.6,29c-1.76,1.76-1.82,3.77.47,6.06s4.26,2.29,6,.53A4.08,4.08,0,0,0,37.37,32l1.38-.37C39,33.24,38.46,34.77,36.88,36.36Z"/><path d="M45,16.61l2.14,3.5,5.25-3.21.55.91L47.64,21l2,3.34L56,20.53l.55.9L49.07,26l-5.84-9.56,7.44-4.54.55.91Z"/><path d="M72.09,9.87l3.63,4-1.38.44-3.49-4-3.73,1.19,1.47,4.62-1.31.42L63.88,5.92l4.91-1.56c1.76-.56,3.69-.89,4.54,1.79C74,8.18,73.23,9.24,72.09,9.87Zm-5.29.68,4-1.26c1.29-.41,1.78-1.17,1.29-2.72s-1.31-1.71-2.65-1.29l-3.9,1.24Z"/><path d="M95.59,1.06l-4.34.3.69,10.12-1.35.09L89.9,1.45l-4.32.3L85.51.69l10-.69Z"/><path d="M114.12,2.64l-1.52,9,3.51.6-.18,1-8.34-1.42.18-1,3.49.6,1.52-9-3.49-.6.18-1,8.34,1.42-.18,1Z"/><path d="M133.64,8.26,132,12.06l5.87,2.54-.42,1L131.58,13l-2,4.53L128.36,17,132.8,6.74l7.93,3.43-.42,1Z"/><path d="M155.75,21l-5.48,7.23,2.83,2.15-.64.85-6.74-5.1.64-.85,2.82,2.14,5.48-7.23L151.84,18l.64-.85,6.74,5.1-.64.85Z"/><path d="M170,34.33l-3.17,2.6,3.89,4.76-.82.67L166,37.6l-3,2.48,4.65,5.68-.82.67-5.51-6.74,8.66-7.09,5.51,6.74-.82.67Z"/><path d="M182.26,62.56c-5.05,2.43-6.56-.71-7.5-2.66l-1.61-3.35,10.11-4.86L184.87,55C185.8,57,187.31,60.14,182.26,62.56Zm-.61-1.27c3.12-1.5,3.5-3.22,2.36-5.58l-1.12-2.32-8.19,3.94,1.12,2.32C177,62,178.53,62.8,181.65,61.3Z"/><path d="M187.23,97.61l-3.9-.11,0-1.35,11.2.33-.13,4.36c-.05,1.85-.29,4.54-3.67,4.44s-3.69-2.81-3.63-4.65Zm1.06,0-.09,3.22c0,1.29.14,2.93,2.57,3s2.57-1.56,2.61-2.85l.09-3.22Z"/><path d="M182.19,123.89l1.6-5.82-2.55-1.57.38-1.38,9.93,6.14-1.06,3.85-11.68.19.38-1.38Zm1.11,0,6.46-.09.48-1.75-5.51-3.38Z"/><path d="M172.41,145.2c-1.89-1.05-1.67-3.34-.13-6.09,1.31-2.36,2.81-3.45,4.33-3.6l0,1.4c-1.06.12-2.33,1-3.33,2.75-1.14,2.05-1.28,3.67-.21,4.27s2.39-.43,4.18-2.33,3.37-3.28,5-2.35,1.33,3.15,0,5.49c-1.13,2-2.57,3.17-4.08,3.24v-1.3c1.14-.08,2.23-.89,3.12-2.48s1.2-3.14.25-3.67-1.95.39-3.42,1.92C175.95,144.77,174.17,146.19,172.41,145.2Z"/><path d="M158.94,161.61c-1.59-1.47-.83-3.64,1.31-6,1.84-2,3.55-2.69,5.07-2.48l-.36,1.35c-1.06-.13-2.49.38-3.89,1.89-1.6,1.73-2.12,3.27-1.21,4.1s2.43.15,4.62-1.28,4-2.39,5.45-1.1.54,3.38-1.27,5.34c-1.58,1.71-3.25,2.48-4.74,2.19l.3-1.27c1.13.19,2.39-.34,3.62-1.67s1.91-2.77,1.12-3.51-2-.08-3.79,1.06C162.48,162,160.42,163,158.94,161.61Z"/><path d="M149.85,177.83l-5-7.57-3,2-.59-.88,7.05-4.68.59.88-3,2,5,7.57,3-2,.59.88-7.05,4.68-.59-.88Z"/><path d="M133.34,181.68c1.59,4.41-.4,6.24-3,7.18s-5.29.8-6.88-3.61.4-6.26,3-7.19S131.74,177.26,133.34,181.68Zm-8.54,3.08c1.26,3.49,3.38,3.69,5.16,3.05s3.3-2.16,2-5.65-3.39-3.71-5.19-3.06S123.53,181.27,124.79,184.77Z"/><path d="M103.24,194.43l-1.18-11.13,1.26-.13,7.29,8.32-1-9,1.34-.14,1.18,11.13-1.25.13-7.31-8.37,1,9Z"/><path d="M67.08,182l1.41-3.63,1.26.49-4,10.43-4.06-1.58c-1.72-.67-4.18-1.79-3-4.94s3.87-2.54,5.59-1.87Zm-.38,1-3-1.16c-1.21-.47-2.81-.84-3.69,1.42s.61,2.94,1.81,3.41l3,1.16Z"/><path d="M43.22,170.5l1-5.34,1.19.83-1,5.19,3.21,2.24,2.77-4,1.13.79-6.41,9.19-4.23-2.95c-1.52-1.06-2.95-2.39-1.34-4.69C40.73,170,42,170,43.22,170.5ZM47,174.28l-3.42-2.38c-1.11-.77-2-.7-2.94.63s-.56,2.09.59,2.89l3.35,2.34Z"/><path d="M32.15,161.87c-3.51,3.1-5.95,1.92-7.78-.16s-2.69-4.62.82-7.72,6-1.93,7.78.13S35.68,158.76,32.15,161.87Zm-6-6.81c-2.78,2.45-2.19,4.5-.94,5.92s3.22,2.27,6-.18,2.2-4.51.94-5.94S28.93,152.6,26.14,155.06Z"/><path d="M17.21,135.71c1.67-.88,3.37.21,4.56,2.46,1,1.9,1,2.89.83,3.66l-1.24-.33a3.88,3.88,0,0,0-.54-2.75c-.88-1.67-2-2.34-3.28-1.66l-6.24,3.29,2.66,5-.94.5-3.3-6.26Z"/><path d="M4.69,123.35l4-1-1.49-6,1-.26,1.49,6,3.8-.95L11.72,114l1-.26,2.11,8.46L4,124.94l-2.11-8.46,1-.26Z"/><path d="M11.47,97.55c.05,3.3-1.64,5.35-5.66,5.41S.05,101,0,97.67a5,5,0,0,1,2-4.57l.75,1.19a3.78,3.78,0,0,0-1.62,3.36c0,2.49,1.44,3.93,4.68,3.88s4.61-1.47,4.57-4A4.08,4.08,0,0,0,8.71,94.2l.69-1.26C10.71,93.86,11.44,95.32,11.47,97.55Z"/><path d="M4.85,70.4l-1,4.23,9.86,2.32-.31,1.31L3.55,75.94l-1,4.21-1-.24,2.29-9.75Z"/></g></g></svg>