<svg xmlns="http://www.w3.org/2000/svg" viewBox="0 0 43 65"><defs><style>.cls-1,.cls-2,.cls-3{fill:none;stroke:#000;}.cls-1,.cls-3{stroke-linecap:round;}.cls-1{stroke-linejoin:round;}.cls-2,.cls-3{stroke-miterlimit:10;}</style></defs><title>ribbon</title><g id="Layer_2" data-name="Layer 2"><g id="Layer_1-2" data-name="Layer 1"><line class="cls-1" x1="38.44" y1="48.14" x2="35.5" y2="37.16"/><polyline class="cls-1" points="39.87 53.48 41.67 60.22 32.38 57.42 25.66 64.5 21.5 48.96"/><polyline class="cls-1" points="3.72 59.5 1.33 60.22 7.5 37.16"/><polyline class="cls-1" points="7.58 58.33 10.62 57.42 17.34 64.5 23.25 42.42"/><circle class="cls-2" cx="21.5" cy="21.5" r="21"/><path class="cls-3" d="M18,28.87,16.39,30a.15.15,0,0,1-.23-.17l2.13-6.55a.15.15,0,0,0-.05-.17l-5.57-4a.15.15,0,0,1,.09-.27h6.89a.15.15,0,0,0,.14-.1l2.13-6.55a.15.15,0,0,1,.28,0l2.13,6.55a.15.15,0,0,0,.14.1h6.89a.15.15,0,0,1,.09.27l-5.57,4a.15.15,0,0,0-.05.17l2.13,6.55a.15.15,0,0,1-.23.17l-5.57-4A.15.15,0,0,0,22,26l-2.07,1.5"/><path class="cls-3" d="M18.17,28.49"/><path class="cls-3" d="M20,27.19"/><path class="cls-3" d="M34.88,11a17,17,0,1,1-10-6.16"/><path class="cls-2" d="M33.7,11.93"/><path class="cls-2" d="M24.62,6.31"/></g></g></svg>